<svg xmlns="http://www.w3.org/2000/svg" xmlns:xlink="http://www.w3.org/1999/xlink" version="1.1" x="0px" y="0px" viewBox="0 0 100 125" style="enable-background:new 0 0 100 100;" xml:space="preserve"><style type="text/css">
	.st0{fill-rule:evenodd;clip-rule:evenodd;}
</style><path class="st0" d="M49.5,89C27.7,89,10,71.3,10,49.5S27.7,10,49.5,10S89,27.7,89,49.5S71.3,89,49.5,89z M63.9,45.9H53.1V35.1  c0-2-1.6-3.6-3.6-3.6c-2,0-3.6,1.6-3.6,3.6v10.8H35.1c-2,0-3.6,1.6-3.6,3.6c0,2,1.6,3.6,3.6,3.6h10.8v10.8c0,2,1.6,3.6,3.6,3.6  c2,0,3.6-1.6,3.6-3.6V53.1h10.8c2,0,3.6-1.6,3.6-3.6C67.5,47.5,65.8,45.9,63.9,45.9z"/><text x="0" y="115" fill="#000000" font-size="5px" font-weight="bold" font-family="'Helvetica Neue', Helvetica, Arial-Unicode, Arial, Sans-serif">Created by Rohith M S</text><text x="0" y="120" fill="#000000" font-size="5px" font-weight="bold" font-family="'Helvetica Neue', Helvetica, Arial-Unicode, Arial, Sans-serif">from the Noun Project</text></svg>